<svg width="200" height="200" viewBox="0 0 200 200" fill="none" xmlns="http://www.w3.org/2000/svg">
<g clip-path="url(#clip0_259_42)">
<rect width="200" height="200" fill="#FDFDFD"/>
<path d="M47.153 63.5375C46.8995 110.333 47.1301 274.71 47.7054 291.15C47.7355 292.009 48.3695 292.435 49.2277 292.386L73.9835 290.979C75.0423 290.919 75.8701 290.043 75.8701 288.983V117.694L73.5875 86.2709V63.5375C73.5875 63.5375 73.5875 34.4961 58.5296 33.9543C45.9949 35.058 47.153 63.5375 47.153 63.5375Z" fill="#B8A48A" stroke="#C5A882" stroke-width="3"/>
<path d="M114.557 86.2709V49.3631C114.557 46.663 116.358 44.2782 118.982 43.6435C131.763 40.5522 140.852 40.5423 155.058 43.7107C157.747 44.3104 159.625 46.7259 159.625 49.481V291.265C159.625 292.37 158.73 293.265 157.625 293.265H117.27C116.165 293.265 115.27 292.37 115.27 291.265V117.697C115.082 117.756 114.883 117.787 114.679 117.787H75.8701H61.4957C60.0459 117.787 58.8011 116.748 58.5495 115.32C56.7764 105.256 56.1117 98.6241 58.4386 88.523C58.7452 87.1921 59.9452 86.2709 61.311 86.2709H73.5875H114.557Z" fill="#E8DFD1"/>
<path d="M47.7912 292.468C47.1535 290.872 46.8873 112.594 47.153 63.5375C47.153 63.5375 45.9949 35.058 58.5296 33.9543C73.5875 34.4961 73.5875 63.5375 73.5875 63.5375V86.2709M114.557 86.2709V49.3631C114.557 46.663 116.358 44.2782 118.982 43.6435C131.763 40.5522 140.852 40.5423 155.058 43.7107C157.747 44.3104 159.625 46.7259 159.625 49.481V291.265C159.625 292.37 158.73 293.265 157.625 293.265H117.27C116.165 293.265 115.27 292.37 115.27 291.265V117.694M75.8701 117.694V290.872M114.679 117.787H61.4957C60.0459 117.787 58.8011 116.748 58.5495 115.32C56.7764 105.256 56.1117 98.6241 58.4386 88.523C58.7452 87.1921 59.9452 86.2709 61.311 86.2709H114.693C115.542 86.2709 116.301 86.8086 116.571 87.6135C120.295 98.7245 120.141 105.471 116.564 116.426C116.298 117.24 115.535 117.787 114.679 117.787Z" stroke="#C5A882" stroke-width="3"/>
</g>
<defs>
<clipPath id="clip0_259_42">
<rect width="200" height="200" fill="white"/>
</clipPath>
</defs>
</svg>
