<svg width="620" height="620" viewBox="0 0 620 620" fill="none" xmlns="http://www.w3.org/2000/svg">
<rect x="0.5" y="0.5" width="619" height="619" fill="#FDFDFD"/>
<rect x="0.5" y="0.5" width="619" height="619" stroke="black"/>
<mask id="path-2-inside-1_255_155" fill="white">
<path d="M79.9043 78.5867C79.9043 69.7501 87.0677 62.5867 95.9043 62.5867H523.904C532.741 62.5867 539.904 69.7501 539.904 78.5867V508.587C539.904 510.796 538.113 512.587 535.904 512.587H83.9043C81.6952 512.587 79.9043 510.796 79.9043 508.587V78.5867Z"/>
</mask>
<path d="M79.9043 78.5867C79.9043 69.7501 87.0677 62.5867 95.9043 62.5867H523.904C532.741 62.5867 539.904 69.7501 539.904 78.5867V508.587C539.904 510.796 538.113 512.587 535.904 512.587H83.9043C81.6952 512.587 79.9043 510.796 79.9043 508.587V78.5867Z" fill="#E8DFD1" stroke="#C5A882" stroke-width="12" mask="url(#path-2-inside-1_255_155)"/>
<mask id="path-3-inside-2_255_155" fill="white">
<path d="M79.9043 509.413C79.9043 508.309 80.7997 507.413 81.9043 507.413H537.904C539.009 507.413 539.904 508.309 539.904 509.413V551.413C539.904 554.727 537.218 557.413 533.904 557.413H85.9043C82.5906 557.413 79.9043 554.727 79.9043 551.413V509.413Z"/>
</mask>
<path d="M79.9043 509.413C79.9043 508.309 80.7997 507.413 81.9043 507.413H537.904C539.009 507.413 539.904 508.309 539.904 509.413V551.413C539.904 554.727 537.218 557.413 533.904 557.413H85.9043C82.5906 557.413 79.9043 554.727 79.9043 551.413V509.413Z" fill="#B8A48A" stroke="#C5A882" stroke-width="12" mask="url(#path-3-inside-2_255_155)"/>
<line x1="334.385" y1="292.587" x2="334.385" y2="212.587" stroke="#C5A882" stroke-width="12"/>
<line x1="278.744" y1="292.587" x2="278.744" y2="212.587" stroke="#C5A882" stroke-width="12"/>
<line x1="307.904" y1="507.413" x2="307.904" y2="180.337" stroke="#C5A882" stroke-width="4"/>
<line x1="80.0957" y1="181.782" x2="540.096" y2="181.782" stroke="#C5A882" stroke-width="6"/>
<line x1="269.904" y1="118.905" x2="349.904" y2="118.905" stroke="#C5A882" stroke-width="12"/>
</svg>
