<svg width="620" height="620" viewBox="0 0 620 620" fill="none" xmlns="http://www.w3.org/2000/svg">
<rect x="0.5" y="0.5" width="619" height="619" fill="#FDFDFD"/>
<rect x="0.5" y="0.5" width="619" height="619" stroke="black"/>
<mask id="path-2-inside-1_255_145" fill="white">
<path d="M79.9043 78.6016C79.9043 69.765 87.0677 62.6016 95.9043 62.6016H523.904C532.741 62.6016 539.904 69.765 539.904 78.6016V508.602C539.904 510.811 538.113 512.602 535.904 512.602H83.9043C81.6952 512.602 79.9043 510.811 79.9043 508.602V78.6016Z"/>
</mask>
<path d="M79.9043 78.6016C79.9043 69.765 87.0677 62.6016 95.9043 62.6016H523.904C532.741 62.6016 539.904 69.765 539.904 78.6016V508.602C539.904 510.811 538.113 512.602 535.904 512.602H83.9043C81.6952 512.602 79.9043 510.811 79.9043 508.602V78.6016Z" fill="#E8DFD1" stroke="#C5A882" stroke-width="12" mask="url(#path-2-inside-1_255_145)"/>
<mask id="path-3-inside-2_255_145" fill="white">
<path d="M79.9043 509.428C79.9043 508.324 80.7997 507.428 81.9043 507.428H537.904C539.009 507.428 539.904 508.324 539.904 509.428V551.428C539.904 554.742 537.218 557.428 533.904 557.428H85.9043C82.5906 557.428 79.9043 554.742 79.9043 551.428V509.428Z"/>
</mask>
<path d="M79.9043 509.428C79.9043 508.324 80.7997 507.428 81.9043 507.428H537.904C539.009 507.428 539.904 508.324 539.904 509.428V551.428C539.904 554.742 537.218 557.428 533.904 557.428H85.9043C82.5906 557.428 79.9043 554.742 79.9043 551.428V509.428Z" fill="#B8A48A" stroke="#C5A882" stroke-width="12" mask="url(#path-3-inside-2_255_145)"/>
<line x1="334.385" y1="292.602" x2="334.385" y2="212.602" stroke="#C5A882" stroke-width="12"/>
<line x1="278.742" y1="292.602" x2="278.742" y2="212.602" stroke="#C5A882" stroke-width="12"/>
<line x1="307.904" y1="507.428" x2="307.904" y2="62.5717" stroke="#C5A882" stroke-width="4"/>
<line x1="80.0957" y1="181.797" x2="540.096" y2="181.797" stroke="#C5A882" stroke-width="6"/>
<line x1="164.168" y1="118.919" x2="244.168" y2="118.919" stroke="#C5A882" stroke-width="12"/>
<line x1="387.182" y1="118.919" x2="467.182" y2="118.919" stroke="#C5A882" stroke-width="12"/>
</svg>
