<svg width="200" height="200" viewBox="0 0 200 200" fill="none" xmlns="http://www.w3.org/2000/svg">
<g clip-path="url(#clip0_259_52)">
<rect width="200" height="200" fill="#FDFDFD"/>
<path d="M92.373 35.0579C102.212 32.2353 108.902 32.3594 119.425 35.1184C120.473 35.3932 121.217 36.3601 121.217 37.4827V230.038C121.217 231.175 120.455 232.15 119.391 232.41C108.838 234.997 102.043 235.005 92.4258 232.46C91.3979 232.188 90.666 231.232 90.666 230.115V37.384C90.6661 36.2876 91.372 35.345 92.373 35.0579Z" fill="#E8DFD1" stroke="#C5A882" stroke-width="3"/>
<path d="M122.55 89.9909C106.073 87.9356 94.6484 88.0732 75.9678 88.5125C74.8722 88.5382 74.0015 89.4413 74.0154 90.5371L75.1217 177.517C75.1353 178.588 75.9922 179.459 77.0638 179.49C94.9867 180.009 106.004 180.232 122.584 178.028C124.552 177.766 126.009 176.077 126.009 174.091V93.9329C126.009 91.934 124.534 90.2383 122.55 89.9909Z" fill="#B8A48A" stroke="#C5A882" stroke-width="3"/>
</g>
<defs>
<clipPath id="clip0_259_52">
<rect width="200" height="200" fill="white"/>
</clipPath>
</defs>
</svg>
