<svg width="200" height="200" viewBox="0 0 200 200" fill="none" xmlns="http://www.w3.org/2000/svg">
<g clip-path="url(#clip0_259_41)">
<rect width="200" height="200" fill="#FDFDFD"/>
<path d="M55.9994 84.8788L41.1635 79.1113C41.078 79.0781 41.0786 78.9569 41.1644 78.9246L128.398 46.0651C128.842 45.8978 129.331 45.8939 129.778 46.054L145.379 51.6476C146.174 51.9325 146.704 52.6859 146.704 53.5302V224.744C146.704 225.637 146.08 226.457 145.191 226.541C117.995 229.097 111.052 86.0271 103.905 85.0147H56.7241C56.4762 85.0147 56.2305 84.9687 55.9994 84.8788Z" fill="#B8A48A" stroke="#C5A882" stroke-width="3"/>
<path d="M128.193 45.5959H41.7754C40.6708 45.5959 39.7754 46.4914 39.7754 47.596V77.1934C39.7754 78.298 40.6708 79.1934 41.7754 79.1934H103.489C104.593 79.1934 105.489 80.0888 105.489 81.1934V274.331C105.489 275.436 106.384 276.331 107.489 276.331H128.193C129.298 276.331 130.193 275.436 130.193 274.331V47.5959C130.193 46.4914 129.298 45.5959 128.193 45.5959Z" fill="#E8DFD1" stroke="#C5A882" stroke-width="3"/>
</g>
<defs>
<clipPath id="clip0_259_41">
<rect width="200" height="200" fill="white"/>
</clipPath>
</defs>
</svg>
