<svg width="620" height="620" viewBox="0 0 620 620" fill="none" xmlns="http://www.w3.org/2000/svg">
<rect width="620" height="620" fill="#FDFDFD"/>
<mask id="path-1-inside-1_255_2" fill="white">
<path d="M160 78.9565C160 70.12 167.163 62.9565 176 62.9565H444C452.837 62.9565 460 70.12 460 78.9565V508.957C460 511.166 458.209 512.957 456 512.957H164C161.791 512.957 160 511.166 160 508.957V78.9565Z"/>
</mask>
<path d="M160 78.9565C160 70.12 167.163 62.9565 176 62.9565H444C452.837 62.9565 460 70.12 460 78.9565V508.957C460 511.166 458.209 512.957 456 512.957H164C161.791 512.957 160 511.166 160 508.957V78.9565Z" fill="#E8DFD1" stroke="#C5A882" stroke-width="12" mask="url(#path-1-inside-1_255_2)"/>
<mask id="path-2-inside-2_255_2" fill="white">
<path d="M160 509.783C160 508.679 160.895 507.783 162 507.783H458C459.105 507.783 460 508.679 460 509.783V551.043C460 554.357 457.314 557.043 454 557.043H166C162.686 557.043 160 554.357 160 551.043V509.783Z"/>
</mask>
<path d="M160 509.783C160 508.679 160.895 507.783 162 507.783H458C459.105 507.783 460 508.679 460 509.783V551.043C460 554.357 457.314 557.043 454 557.043H166C162.686 557.043 160 554.357 160 551.043V509.783Z" fill="#B8A48A" stroke="#C5A882" stroke-width="12" mask="url(#path-2-inside-2_255_2)"/>
<line x1="159.978" y1="183.18" x2="459.978" y2="181.013" stroke="#C5A882" stroke-width="6"/>
<line x1="270" y1="119.219" x2="350" y2="119.219" stroke="#C5A882" stroke-width="12"/>
<line x1="414.48" y1="292.957" x2="414.48" y2="212.957" stroke="#C5A882" stroke-width="12"/>
</svg>
