<svg width="620" height="620" viewBox="0 0 620 620" fill="none" xmlns="http://www.w3.org/2000/svg">
<rect width="620" height="620" fill="#FDFDFD"/>
<path d="M219.543 65.6016H400.457C405.428 65.6016 409.457 69.631 409.457 74.6016V545.428C409.457 550.398 405.428 554.429 400.457 554.429H219.543C214.572 554.429 210.543 550.398 210.543 545.428V74.6016C210.543 69.631 214.572 65.6016 219.543 65.6016Z" fill="#E8DFD1" stroke="#C5A882" stroke-width="6"/>
<line x1="329.074" y1="180.703" x2="329.074" y2="140.703" stroke="#C5A882" stroke-width="6"/>
<line x1="289.074" y1="180.703" x2="289.074" y2="140.703" stroke="#C5A882" stroke-width="6"/>
<line x1="290" y1="381.703" x2="330" y2="381.703" stroke="#C5A882" stroke-width="6"/>
<line x1="290" y1="437.498" x2="330" y2="437.498" stroke="#C5A882" stroke-width="6"/>
<line x1="290" y1="501.131" x2="330" y2="501.131" stroke="#C5A882" stroke-width="6"/>
<line x1="211.551" y1="198.703" x2="409.778" y2="198.703" stroke="#C5A882" stroke-width="4"/>
<line x1="211.551" y1="360.678" x2="409.778" y2="360.678" stroke="#C5A882" stroke-width="4"/>
<line x1="211.551" y1="404.022" x2="409.778" y2="404.022" stroke="#C5A882" stroke-width="4"/>
<line x1="211.551" y1="466.272" x2="409.778" y2="466.272" stroke="#C5A882" stroke-width="4"/>
<path d="M308.666 200.703L308.666 64.8515" stroke="#C5A882" stroke-width="4"/>
<rect x="213.531" y="200.703" width="192.871" height="158.28" fill="#B8A48A"/>
<mask id="path-13-inside-1_255_108" fill="white">
<path d="M207.543 531.131C207.543 530.027 208.438 529.131 209.543 529.131H410.457C411.562 529.131 412.457 530.027 412.457 531.131V551.098C412.457 554.412 409.771 557.098 406.457 557.098H213.543C210.229 557.098 207.543 554.412 207.543 551.098V531.131Z"/>
</mask>
<path d="M207.543 531.131C207.543 530.027 208.438 529.131 209.543 529.131H410.457C411.562 529.131 412.457 530.027 412.457 531.131V551.098C412.457 554.412 409.771 557.098 406.457 557.098H213.543C210.229 557.098 207.543 554.412 207.543 551.098V531.131Z" fill="#B8A48A" stroke="#C5A882" stroke-width="12" mask="url(#path-13-inside-1_255_108)"/>
</svg>
