<svg width="620" height="620" viewBox="0 0 620 620" fill="none" xmlns="http://www.w3.org/2000/svg">
<rect width="620" height="620" fill="#FDFDFD"/>
<mask id="path-1-inside-1_255_123" fill="white">
<path d="M207.543 74.6016C207.543 67.9741 212.916 62.6016 219.543 62.6016H400.457C407.084 62.6016 412.457 67.9741 412.457 74.6016V555.428C412.457 556.533 411.562 557.428 410.457 557.428H209.543C208.438 557.428 207.543 556.533 207.543 555.428V74.6016Z"/>
</mask>
<path d="M207.543 74.6016C207.543 67.9741 212.916 62.6016 219.543 62.6016H400.457C407.084 62.6016 412.457 67.9741 412.457 74.6016V555.428C412.457 556.533 411.562 557.428 410.457 557.428H209.543C208.438 557.428 207.543 556.533 207.543 555.428V74.6016Z" fill="#E8DFD1"/>
<path d="M201.543 74.6016C201.543 64.6604 209.602 56.6016 219.543 56.6016H400.457C410.398 56.6016 418.457 64.6604 418.457 74.6016H406.457C406.457 71.2879 403.771 68.6016 400.457 68.6016H219.543C216.229 68.6016 213.543 71.2879 213.543 74.6016H201.543ZM213.543 74.6016M412.457 557.428H207.543H412.457M209.543 557.428C205.125 557.428 201.543 553.846 201.543 549.428V74.6016C201.543 64.6604 209.602 56.6016 219.543 56.6016V68.6016C216.229 68.6016 213.543 71.2879 213.543 74.6016V555.428C213.543 556.533 213.543 557.428 213.543 557.428H209.543ZM400.457 56.6016C410.398 56.6016 418.457 64.6604 418.457 74.6016V549.428C418.457 553.846 414.875 557.428 410.457 557.428H406.457C406.457 557.428 406.457 556.533 406.457 555.428V74.6016C406.457 71.2879 403.771 68.6016 400.457 68.6016V56.6016Z" fill="#C5A882" mask="url(#path-1-inside-1_255_123)"/>
<line x1="329.074" y1="180.703" x2="329.074" y2="140.703" stroke="#C5A882" stroke-width="6"/>
<path d="M213.531 200.703H406.461V557.428H213.531V200.703Z" fill="#B8A48A"/>
<line x1="289.074" y1="180.703" x2="289.074" y2="140.703" stroke="#C5A882" stroke-width="6"/>
<line x1="211.551" y1="198.703" x2="409.778" y2="198.703" stroke="#C5A882" stroke-width="4"/>
<path d="M308.666 200.703L308.666 64.8515" stroke="#C5A882" stroke-width="4"/>
</svg>
