<svg width="480" height="480" viewBox="70 70 480 480" fill="none" xmlns="http://www.w3.org/2000/svg">
<rect x="70" y="70" width="480" height="480" fill="#FDFDFD"/>
<path d="M524.5 462.842H441.603C438.289 462.842 435.603 460.155 435.603 456.842V259.158C435.603 255.844 432.916 253.158 429.603 253.158L190.975 253.158C187.661 253.158 184.975 255.844 184.975 259.158V456.447C184.975 459.761 182.288 462.447 178.975 462.447H89.5L89.5 159.158C89.5 158.054 90.3954 157.158 91.5 157.158L528.5 157.158C529.605 157.158 530.5 158.054 530.5 159.158V456.842C530.5 460.155 527.814 462.842 524.5 462.842Z" fill="#E8DFD1" stroke="#C5A882" stroke-width="4"/>
<path opacity="0.32" d="M238 318.392H382C385.866 318.392 389 321.526 389 325.392V409.392C389 413.258 385.866 416.392 382 416.392H238C234.134 416.392 231 413.258 231 409.392L231 325.392C231 321.526 234.134 318.392 238 318.392Z" fill="#B8A48A" stroke="#C5A882" stroke-width="2"/>
</svg>
