<svg width="620" height="620" viewBox="0 0 620 620" fill="none" xmlns="http://www.w3.org/2000/svg">
<rect width="620" height="620" fill="#FDFDFD"/>
<mask id="path-1-inside-1_255_86" fill="white">
<path d="M80 78.6016C80 69.765 87.1634 62.6016 96 62.6016H524C532.837 62.6016 540 69.765 540 78.6016V508.602C540 510.811 538.209 512.602 536 512.602H84C81.7909 512.602 80 510.811 80 508.602V78.6016Z"/>
</mask>
<path d="M80 78.6016C80 69.765 87.1634 62.6016 96 62.6016H524C532.837 62.6016 540 69.765 540 78.6016V508.602C540 510.811 538.209 512.602 536 512.602H84C81.7909 512.602 80 510.811 80 508.602V78.6016Z" fill="#E8DFD1" stroke="#C5A882" stroke-width="12" mask="url(#path-1-inside-1_255_86)"/>
<mask id="path-2-inside-2_255_86" fill="white">
<path d="M80 509.428C80 508.324 80.8954 507.428 82 507.428H538C539.105 507.428 540 508.324 540 509.428V551.428C540 554.742 537.314 557.428 534 557.428H86C82.6863 557.428 80 554.742 80 551.428V509.428Z"/>
</mask>
<path d="M80 509.428C80 508.324 80.8954 507.428 82 507.428H538C539.105 507.428 540 508.324 540 509.428V551.428C540 554.742 537.314 557.428 534 557.428H86C82.6863 557.428 80 554.742 80 551.428V509.428Z" fill="#B8A48A" stroke="#C5A882" stroke-width="12" mask="url(#path-2-inside-2_255_86)"/>
<line x1="334.48" y1="177.636" x2="334.48" y2="97.636" stroke="#C5A882" stroke-width="12"/>
<line x1="278.84" y1="177.636" x2="278.84" y2="97.636" stroke="#C5A882" stroke-width="12"/>
<line x1="308" y1="507.428" x2="308" y2="62.5717" stroke="#C5A882" stroke-width="4"/>
</svg>
