<svg width="200" height="200" viewBox="0 0 200 200" fill="none" xmlns="http://www.w3.org/2000/svg">
<rect width="200" height="200" fill="#FDFDFD"/>
<path d="M47.978 125.943L90.2026 128.681C91.3557 128.756 92.332 127.841 92.332 126.685V73.5264C92.332 72.3547 91.3293 71.434 90.1619 71.5337L47.9375 75.1392C46.9027 75.2276 46.1077 76.0933 46.1077 77.132L46.1074 123.947C46.1074 125.001 46.9259 125.875 47.978 125.943Z" fill="#B8A48A" stroke="#C5A882" stroke-width="3"/>
<path d="M90.0234 148.277C93.3888 105.959 93.1824 93.985 90.1476 50.6025C90.0776 49.6025 90.7567 48.682 91.7385 48.4801L104.612 45.8328C123.465 47.8213 133.158 47.9832 148.774 55.9709C149.174 56.1757 149.495 56.509 149.677 56.9206C159.025 78.1704 162.65 112.346 151.358 143.602C149.179 146.571 146.784 149.251 144.258 150.602C140.303 151.433 98.2556 151.294 90.0234 148.277Z" fill="#FDFDFD"/>
<path d="M90.0234 148.277C93.3888 105.959 93.1824 93.985 90.1476 50.6025C90.0776 49.6025 90.7567 48.682 91.7385 48.4801L104.612 45.8328C123.465 47.8213 133.158 47.9832 148.774 55.9709C149.174 56.1757 149.495 56.509 149.677 56.9206C159.025 78.1704 162.65 112.346 151.358 143.602C149.179 146.571 146.784 149.251 144.258 150.602C140.303 151.433 98.2556 151.294 90.0234 148.277Z" fill="#E8DFD1"/>
<path d="M90.0234 148.277C93.3888 105.959 93.1824 93.985 90.1476 50.6025C90.0776 49.6025 90.7567 48.682 91.7385 48.4801L104.612 45.8328M90.0234 148.277L104.33 143.277M90.0234 148.277C98.2556 151.294 140.303 151.433 144.258 150.602C146.784 149.251 149.179 146.571 151.358 143.602M104.33 143.277C104.33 143.277 129.402 145.277 151.358 143.602M104.33 143.277C110.61 106.4 112.099 89.6208 104.612 45.8328M104.612 45.8328C123.465 47.8213 133.158 47.9832 148.774 55.9709C149.174 56.1757 149.495 56.509 149.677 56.9206C159.025 78.1704 162.65 112.346 151.358 143.602" stroke="#C5A882" stroke-width="3"/>
</svg>
