<svg width="200" height="200" viewBox="0 0 200 200" fill="none" xmlns="http://www.w3.org/2000/svg">
<rect width="200" height="200" fill="#FDFDFD"/>
<path d="M86.941 130.176C86.003 138.755 78.2961 145.103 70.7855 146.022C70.5924 146.046 70.3993 146.038 70.2093 145.996C50.0446 141.547 39.2445 73.873 68.5155 63.3861L68.6586 63.3508C68.8154 63.3121 68.9768 63.2917 69.1384 63.2949C77.7425 63.4641 85.5167 72.5569 86.996 80.4264C87.1717 81.3608 87.8897 82.1323 88.8344 82.2393C96.6619 83.1254 101.97 82.9544 110.265 82.5845C111.28 82.5392 112.168 83.2609 112.33 84.2635L118.261 120.964C118.353 121.528 118.198 122.104 117.837 122.547L113.851 127.437C113.425 127.96 112.762 128.231 112.091 128.165C103.26 127.292 96.52 127.309 88.7799 128.208C87.7819 128.324 87.0503 129.177 86.941 130.176Z" fill="#E8DFD1" stroke="#C5A882" stroke-width="3"/>
<path d="M126.966 156.059C127.781 156.85 131.225 158.608 145.353 156.599C145.596 156.565 145.838 156.486 146.05 156.362C172.69 140.81 174.237 64.7941 142.63 52.9746C142.477 52.9172 142.311 52.88 142.148 52.8638C134.097 52.0645 129.979 52.9756 128.474 53.4549C128.021 53.5991 127.517 53.6179 127.058 53.7385C119.122 55.8215 90.7254 111.231 126.451 155.388C126.626 155.605 126.766 155.865 126.966 156.059Z" fill="#E8DFD1" stroke="#C5A882" stroke-width="3"/>
<path d="M82.5251 81.5234C95.5079 83.239 100.328 82.9612 111.737 82.2582M111.933 127.995C97.9847 127.113 91.9933 127.323 82.1738 129.372" stroke="#C5A882" stroke-width="3"/>
<path d="M58.594 146.118H70.2312C70.3319 146.118 70.3712 145.985 70.2864 145.931C47.3458 131.252 47.2301 74.1851 69.2571 63.7077C69.4556 63.6132 69.3904 63.2935 69.1706 63.2935H57.7673C57.387 63.2935 57.0165 63.3978 56.7012 63.6106C37.3569 76.6676 33.5281 124.803 57.308 145.64C57.6629 145.951 58.1221 146.118 58.594 146.118Z" fill="#B8A48A" stroke="#C5A882" stroke-width="3"/>
</svg>
