<svg width="418" height="418" viewBox="0 0 418 418" fill="none" xmlns="http://www.w3.org/2000/svg">
<g clip-path="url(#clip0_264_14)">
<rect width="418" height="418" fill="white"/>
<path d="M-145.646 456.453V175.208L75.3875 202.937L-13.4989 162.864V118.573L258.394 124.505H336.034V476.283L75.3875 488.935L-145.646 456.453Z" fill="#E8DFD1"/>
<path d="M75.3874 202.937L-145.646 175.208V456.453L75.3874 488.935M75.3874 202.937V488.935M75.3874 202.937L-13.4989 162.864V118.573L258.394 124.505H336.034V476.283L75.3874 488.935" stroke="#C5A882"/>
<path d="M75.3867 488.935V202.937L258.392 186.108L258.394 124.506H336.033V476.284L75.3867 488.935Z" fill="#B8A48A" stroke="#C5A882"/>
<path d="M53.5711 204.101L-177.201 184.825V171.754L-12.4818 161.941L266.592 184.267V199.542L53.5711 204.101Z" fill="#F8ECDC" stroke="#C5A882"/>
<path d="M-14.6445 118.574V106.082L263.867 108.191V124.293L-14.6445 118.574Z" fill="#D9D9D9" stroke="#C5A882"/>
<path d="M53.5711 204.102L-177.201 183.771V170.7L53.5711 186.35V204.102Z" fill="#D9D9D9" stroke="#C5A882"/>
<path d="M266.591 199.542L53.5703 204.102V186.35L266.591 184.268V199.542Z" fill="#A7A7A7" stroke="#C5A882"/>
<path d="M399.522 124.226V109.629L264.108 108.181L263.854 124.314L399.522 124.226Z" fill="#A7A7A7" stroke="#C5A882"/>
</g>
<defs>
<clipPath id="clip0_264_14">
<rect width="418" height="418" fill="white"/>
</clipPath>
</defs>
</svg>
