<svg width="200" height="200" viewBox="0 0 200 200" fill="none" xmlns="http://www.w3.org/2000/svg">
<rect width="200" height="200" fill="#FDFDFD"/>
<rect x="11.957" y="10.1963" width="176.086" height="179.608" rx="16" fill="#E8DFD1"/>
<path d="M33.7979 95V80.4545H39.2525C40.3699 80.4545 41.3074 80.6629 42.065 81.0795C42.8273 81.4962 43.4026 82.0691 43.7908 82.7983C44.1838 83.5227 44.3803 84.3466 44.3803 85.2699C44.3803 86.2027 44.1838 87.0312 43.7908 87.7557C43.3978 88.4801 42.8178 89.0507 42.0508 89.4673C41.2837 89.8793 40.3391 90.0852 39.217 90.0852H35.6019V87.919H38.8619C39.5153 87.919 40.0503 87.8054 40.467 87.5781C40.8836 87.3509 41.1914 87.0384 41.3903 86.6406C41.5939 86.2429 41.6957 85.786 41.6957 85.2699C41.6957 84.7538 41.5939 84.2992 41.3903 83.9062C41.1914 83.5133 40.8813 83.2079 40.4599 82.9901C40.0432 82.7675 39.5058 82.6562 38.8477 82.6562H36.4329V95H33.7979ZM53.5085 90.4119V84.0909H56.0795V95H53.5866V93.0611H53.473C53.2268 93.6719 52.822 94.1714 52.2585 94.5597C51.6998 94.9479 51.0109 95.142 50.1918 95.142C49.4768 95.142 48.8447 94.9834 48.2955 94.6662C47.7509 94.3442 47.3248 93.8778 47.017 93.267C46.7093 92.6515 46.5554 91.9081 46.5554 91.0369V84.0909H49.1264V90.6392C49.1264 91.3305 49.3158 91.8797 49.6946 92.2869C50.0734 92.6941 50.5705 92.8977 51.1861 92.8977C51.5649 92.8977 51.9318 92.8054 52.2869 92.6207C52.642 92.4361 52.9332 92.1615 53.1605 91.7969C53.3925 91.4276 53.5085 90.9659 53.5085 90.4119ZM67.3455 86.9744L65.0018 87.2301C64.9355 86.9934 64.8195 86.7708 64.6538 86.5625C64.4928 86.3542 64.275 86.1861 64.0004 86.0582C63.7257 85.9304 63.3896 85.8665 62.9918 85.8665C62.4568 85.8665 62.007 85.9825 61.6424 86.2145C61.2826 86.4465 61.105 86.7472 61.1097 87.1165C61.105 87.4337 61.221 87.6918 61.4577 87.8906C61.6992 88.0895 62.0969 88.2528 62.6509 88.3807L64.5117 88.7784C65.5439 89.0009 66.311 89.3537 66.8129 89.8366C67.3195 90.3196 67.5752 90.9517 67.5799 91.733C67.5752 92.4195 67.3739 93.0256 66.9762 93.5511C66.5832 94.072 66.0363 94.4792 65.3356 94.7727C64.6348 95.0663 63.8299 95.2131 62.9208 95.2131C61.5856 95.2131 60.5108 94.9337 59.6964 94.375C58.882 93.8116 58.3967 93.0279 58.2404 92.0241L60.7475 91.7827C60.8612 92.2751 61.1026 92.6468 61.4719 92.8977C61.8413 93.1487 62.3219 93.2741 62.9137 93.2741C63.5245 93.2741 64.0146 93.1487 64.3839 92.8977C64.7579 92.6468 64.945 92.3366 64.945 91.9673C64.945 91.6548 64.8242 91.3968 64.5827 91.1932C64.346 90.9896 63.9767 90.8333 63.4748 90.7244L61.614 90.3338C60.5676 90.116 59.7934 89.7491 59.2915 89.233C58.7897 88.7121 58.5411 88.054 58.5458 87.2585C58.5411 86.5862 58.7234 86.0038 59.0927 85.5114C59.4667 85.0142 59.9852 84.6307 60.6481 84.3608C61.3157 84.0862 62.0851 83.9489 62.9563 83.9489C64.2347 83.9489 65.2409 84.2211 65.9748 84.7656C66.7134 85.3101 67.1703 86.0464 67.3455 86.9744ZM72.271 88.608V95H69.6999V80.4545H72.2141V85.9446H72.342C72.5977 85.3291 72.993 84.8437 73.5281 84.4886C74.0678 84.1288 74.7544 83.9489 75.5877 83.9489C76.3453 83.9489 77.0058 84.1075 77.5692 84.4247C78.1327 84.742 78.5683 85.206 78.8761 85.8168C79.1886 86.4276 79.3448 87.1733 79.3448 88.054V95H76.7738V88.4517C76.7738 87.7178 76.5844 87.1473 76.2056 86.7401C75.8316 86.3281 75.306 86.1222 74.6289 86.1222C74.1744 86.1222 73.7672 86.2216 73.4073 86.4205C73.0522 86.6146 72.7728 86.8963 72.5692 87.2656C72.3704 87.6349 72.271 88.0824 72.271 88.608ZM88.5778 87.8835V90H82.0295V87.8835H88.5778ZM96.7294 84.0909V86.0795H90.4581V84.0909H96.7294ZM92.0064 81.4773H94.5774V91.7188C94.5774 92.0644 94.6295 92.3295 94.7337 92.5142C94.8426 92.6941 94.9846 92.8172 95.1598 92.8835C95.335 92.9498 95.5291 92.983 95.7422 92.983C95.9032 92.983 96.05 92.9711 96.1825 92.9474C96.3198 92.9238 96.424 92.9025 96.495 92.8835L96.9283 94.8935C96.791 94.9408 96.5945 94.9929 96.3388 95.0497C96.0878 95.1065 95.7801 95.1397 95.4155 95.1491C94.7715 95.1681 94.1915 95.071 93.6754 94.858C93.1593 94.6402 92.7498 94.304 92.4467 93.8494C92.1484 93.3949 92.0017 92.8267 92.0064 92.1449V81.4773ZM103.521 95.2131C102.456 95.2131 101.532 94.9787 100.751 94.5099C99.9698 94.0412 99.3638 93.3854 98.9329 92.5426C98.5067 91.6998 98.2937 90.715 98.2937 89.5881C98.2937 88.4612 98.5067 87.474 98.9329 86.6264C99.3638 85.7789 99.9698 85.1207 100.751 84.652C101.532 84.1832 102.456 83.9489 103.521 83.9489C104.586 83.9489 105.51 84.1832 106.291 84.652C107.072 85.1207 107.676 85.7789 108.102 86.6264C108.533 87.474 108.748 88.4612 108.748 89.5881C108.748 90.715 108.533 91.6998 108.102 92.5426C107.676 93.3854 107.072 94.0412 106.291 94.5099C105.51 94.9787 104.586 95.2131 103.521 95.2131ZM103.535 93.1534C104.113 93.1534 104.596 92.9948 104.984 92.6776C105.372 92.3556 105.661 91.9247 105.85 91.3849C106.045 90.8452 106.142 90.2438 106.142 89.581C106.142 88.9134 106.045 88.3097 105.85 87.7699C105.661 87.2254 105.372 86.7921 104.984 86.4702C104.596 86.1482 104.113 85.9872 103.535 85.9872C102.943 85.9872 102.451 86.1482 102.058 86.4702C101.67 86.7921 101.378 87.2254 101.184 87.7699C100.995 88.3097 100.9 88.9134 100.9 89.581C100.9 90.2438 100.995 90.8452 101.184 91.3849C101.378 91.9247 101.67 92.3556 102.058 92.6776C102.451 92.9948 102.943 93.1534 103.535 93.1534ZM117.543 87.8835V90H110.994V87.8835H117.543ZM125.005 95.2131C123.94 95.2131 123.017 94.9787 122.235 94.5099C121.454 94.0412 120.848 93.3854 120.417 92.5426C119.991 91.6998 119.778 90.715 119.778 89.5881C119.778 88.4612 119.991 87.474 120.417 86.6264C120.848 85.7789 121.454 85.1207 122.235 84.652C123.017 84.1832 123.94 83.9489 125.005 83.9489C126.071 83.9489 126.994 84.1832 127.775 84.652C128.556 85.1207 129.16 85.7789 129.586 86.6264C130.017 87.474 130.233 88.4612 130.233 89.5881C130.233 90.715 130.017 91.6998 129.586 92.5426C129.16 93.3854 128.556 94.0412 127.775 94.5099C126.994 94.9787 126.071 95.2131 125.005 95.2131ZM125.02 93.1534C125.597 93.1534 126.08 92.9948 126.468 92.6776C126.857 92.3556 127.145 91.9247 127.335 91.3849C127.529 90.8452 127.626 90.2438 127.626 89.581C127.626 88.9134 127.529 88.3097 127.335 87.7699C127.145 87.2254 126.857 86.7921 126.468 86.4702C126.08 86.1482 125.597 85.9872 125.02 85.9872C124.428 85.9872 123.935 86.1482 123.542 86.4702C123.154 86.7921 122.863 87.2254 122.669 87.7699C122.479 88.3097 122.385 88.9134 122.385 89.581C122.385 90.2438 122.479 90.8452 122.669 91.3849C122.863 91.9247 123.154 92.3556 123.542 92.6776C123.935 92.9948 124.428 93.1534 125.02 93.1534ZM132.415 99.0909V84.0909H134.943V85.8949H135.092C135.225 85.6297 135.412 85.348 135.653 85.0497C135.895 84.7467 136.222 84.4886 136.634 84.2756C137.045 84.0578 137.571 83.9489 138.21 83.9489C139.053 83.9489 139.813 84.1643 140.49 84.5952C141.172 85.0213 141.712 85.6534 142.109 86.4915C142.512 87.3248 142.713 88.3475 142.713 89.5597C142.713 90.7576 142.517 91.7756 142.124 92.6136C141.731 93.4517 141.196 94.0909 140.518 94.5312C139.841 94.9716 139.074 95.1918 138.217 95.1918C137.592 95.1918 137.074 95.0876 136.662 94.8793C136.25 94.6709 135.919 94.42 135.668 94.1264C135.421 93.8281 135.23 93.5464 135.092 93.2812H134.986V99.0909H132.415ZM134.936 89.5455C134.936 90.2509 135.036 90.8688 135.234 91.3991C135.438 91.9295 135.729 92.3437 136.108 92.642C136.491 92.9356 136.955 93.0824 137.5 93.0824C138.068 93.0824 138.544 92.9309 138.928 92.6278C139.311 92.3201 139.6 91.901 139.794 91.3707C139.993 90.8357 140.092 90.2273 140.092 89.5455C140.092 88.8684 139.995 88.267 139.801 87.7415C139.607 87.2159 139.318 86.804 138.935 86.5057C138.551 86.2074 138.073 86.0582 137.5 86.0582C136.951 86.0582 136.484 86.2027 136.101 86.4915C135.717 86.7803 135.426 87.1851 135.227 87.706C135.033 88.2268 134.936 88.84 134.936 89.5455ZM149.744 95.2131C148.651 95.2131 147.706 94.9858 146.911 94.5312C146.12 94.072 145.511 93.4233 145.085 92.5852C144.659 91.7424 144.446 90.7505 144.446 89.6094C144.446 88.4872 144.659 87.5024 145.085 86.6548C145.516 85.8026 146.117 85.1397 146.889 84.6662C147.661 84.188 148.568 83.9489 149.609 83.9489C150.282 83.9489 150.916 84.0578 151.513 84.2756C152.114 84.4886 152.644 84.8201 153.104 85.2699C153.568 85.7197 153.932 86.2926 154.197 86.9886C154.463 87.6799 154.595 88.5038 154.595 89.4602V90.2486H145.653V88.5156H152.131C152.126 88.0232 152.019 87.5852 151.811 87.2017C151.603 86.8134 151.312 86.508 150.938 86.2855C150.568 86.063 150.137 85.9517 149.645 85.9517C149.119 85.9517 148.658 86.0795 148.26 86.3352C147.862 86.5862 147.552 86.9176 147.33 87.3295C147.112 87.7367 147 88.1842 146.996 88.6719V90.1847C146.996 90.8191 147.112 91.3636 147.344 91.8182C147.576 92.268 147.9 92.6136 148.317 92.8551C148.733 93.0919 149.221 93.2102 149.78 93.2102C150.154 93.2102 150.492 93.1581 150.795 93.054C151.098 92.9451 151.361 92.7865 151.584 92.5781C151.806 92.3698 151.974 92.1117 152.088 91.804L154.489 92.0739C154.337 92.7083 154.048 93.2623 153.622 93.7358C153.201 94.2045 152.661 94.5691 152.003 94.8295C151.345 95.0852 150.592 95.2131 149.744 95.2131ZM159.341 88.608V95H156.77V84.0909H159.228V85.9446H159.355C159.606 85.3338 160.007 84.8485 160.556 84.4886C161.11 84.1288 161.794 83.9489 162.608 83.9489C163.361 83.9489 164.017 84.1098 164.576 84.4318C165.139 84.7538 165.575 85.2202 165.882 85.831C166.195 86.4418 166.349 87.1828 166.344 88.054V95H163.773V88.4517C163.773 87.7225 163.584 87.152 163.205 86.7401C162.831 86.3281 162.312 86.1222 161.65 86.1222C161.2 86.1222 160.8 86.2216 160.449 86.4205C160.104 86.6146 159.831 86.8963 159.632 87.2656C159.438 87.6349 159.341 88.0824 159.341 88.608ZM66.9096 119.213C65.8206 119.213 64.8855 118.974 64.1042 118.496C63.3277 118.018 62.7288 117.357 62.3074 116.514C61.8907 115.667 61.6824 114.691 61.6824 113.588C61.6824 112.48 61.8954 111.502 62.3216 110.655C62.7477 109.803 63.349 109.14 64.1255 108.666C64.9068 108.188 65.8301 107.949 66.8954 107.949C67.7808 107.949 68.5645 108.112 69.2463 108.439C69.9328 108.761 70.4797 109.218 70.8869 109.81C71.2941 110.397 71.5261 111.083 71.5829 111.869H69.1255C69.0261 111.344 68.7894 110.906 68.4153 110.555C68.046 110.2 67.5512 110.023 66.9309 110.023C66.4054 110.023 65.9437 110.165 65.546 110.449C65.1483 110.728 64.8381 111.131 64.6156 111.656C64.3978 112.182 64.2889 112.812 64.2889 113.545C64.2889 114.289 64.3978 114.928 64.6156 115.463C64.8334 115.993 65.1388 116.403 65.5318 116.692C65.9295 116.976 66.3959 117.118 66.9309 117.118C67.3097 117.118 67.6483 117.047 67.9466 116.905C68.2496 116.758 68.5029 116.547 68.7065 116.273C68.9101 115.998 69.0498 115.664 69.1255 115.271H71.5829C71.5214 116.043 71.2941 116.727 70.9011 117.324C70.5081 117.916 69.9731 118.38 69.296 118.716C68.6189 119.047 67.8234 119.213 66.9096 119.213ZM76.8333 119.22C76.142 119.22 75.5194 119.097 74.9654 118.851C74.4161 118.6 73.9805 118.231 73.6586 117.743C73.3413 117.255 73.1827 116.654 73.1827 115.939C73.1827 115.323 73.2963 114.814 73.5236 114.412C73.7509 114.009 74.061 113.688 74.454 113.446C74.847 113.205 75.2897 113.022 75.7821 112.899C76.2793 112.771 76.793 112.679 77.3233 112.622C77.9625 112.556 78.481 112.497 78.8787 112.445C79.2765 112.388 79.5653 112.303 79.7452 112.189C79.9299 112.071 80.0222 111.888 80.0222 111.642V111.599C80.0222 111.064 79.8636 110.65 79.5463 110.357C79.2291 110.063 78.7722 109.916 78.1756 109.916C77.5459 109.916 77.0463 110.054 76.677 110.328C76.3124 110.603 76.0662 110.927 75.9384 111.301L73.5378 110.96C73.7272 110.297 74.0397 109.743 74.4753 109.298C74.9109 108.848 75.4436 108.512 76.0733 108.29C76.7031 108.062 77.3991 107.949 78.1614 107.949C78.687 107.949 79.2102 108.01 79.731 108.134C80.2518 108.257 80.7277 108.46 81.1586 108.744C81.5894 109.024 81.9351 109.405 82.1955 109.888C82.4606 110.371 82.5932 110.974 82.5932 111.699V119H80.1216V117.501H80.0364C79.8801 117.804 79.66 118.089 79.3759 118.354C79.0965 118.614 78.7438 118.825 78.3176 118.986C77.8962 119.142 77.4015 119.22 76.8333 119.22ZM77.5009 117.331C78.017 117.331 78.4644 117.229 78.8432 117.026C79.222 116.817 79.5132 116.543 79.7168 116.202C79.9251 115.861 80.0293 115.489 80.0293 115.087V113.801C79.9488 113.867 79.8115 113.929 79.6174 113.986C79.428 114.043 79.2149 114.092 78.9782 114.135C78.7414 114.178 78.507 114.215 78.275 114.249C78.043 114.282 77.8418 114.31 77.6713 114.334C77.2878 114.386 76.9445 114.471 76.6415 114.589C76.3385 114.708 76.0994 114.874 75.9242 115.087C75.749 115.295 75.6614 115.565 75.6614 115.896C75.6614 116.37 75.8342 116.727 76.1799 116.969C76.5255 117.21 76.9659 117.331 77.5009 117.331ZM85.2921 119V104.455H87.8631V109.895H87.9696C88.1022 109.63 88.2892 109.348 88.5307 109.05C88.7722 108.747 89.0989 108.489 89.5108 108.276C89.9228 108.058 90.4483 107.949 91.0875 107.949C91.9303 107.949 92.6903 108.164 93.3674 108.595C94.0492 109.021 94.589 109.653 94.9867 110.491C95.3891 111.325 95.5904 112.348 95.5904 113.56C95.5904 114.758 95.3939 115.776 95.0009 116.614C94.6079 117.452 94.0729 118.091 93.3958 118.531C92.7187 118.972 91.9516 119.192 91.0946 119.192C90.4696 119.192 89.9512 119.088 89.5392 118.879C89.1273 118.671 88.7959 118.42 88.5449 118.126C88.2987 117.828 88.1069 117.546 87.9696 117.281H87.8205V119H85.2921ZM87.8134 113.545C87.8134 114.251 87.9128 114.869 88.1117 115.399C88.3153 115.929 88.6065 116.344 88.9853 116.642C89.3688 116.936 89.8328 117.082 90.3773 117.082C90.9455 117.082 91.4213 116.931 91.8049 116.628C92.1884 116.32 92.4772 115.901 92.6713 115.371C92.8702 114.836 92.9696 114.227 92.9696 113.545C92.9696 112.868 92.8726 112.267 92.6784 111.741C92.4843 111.216 92.1955 110.804 91.812 110.506C91.4284 110.207 90.9502 110.058 90.3773 110.058C89.8281 110.058 89.3617 110.203 88.9782 110.491C88.5946 110.78 88.3034 111.185 88.1046 111.706C87.9105 112.227 87.8134 112.84 87.8134 113.545ZM97.7761 119V108.091H100.347V119H97.7761ZM99.0687 106.543C98.6615 106.543 98.3111 106.408 98.0176 106.138C97.724 105.863 97.5772 105.534 97.5772 105.151C97.5772 104.762 97.724 104.433 98.0176 104.163C98.3111 103.889 98.6615 103.751 99.0687 103.751C99.4806 103.751 99.831 103.889 100.12 104.163C100.413 104.433 100.56 104.762 100.56 105.151C100.56 105.534 100.413 105.863 100.12 106.138C99.831 106.408 99.4806 106.543 99.0687 106.543ZM105.562 112.608V119H102.991V108.091H105.448V109.945H105.576C105.827 109.334 106.227 108.848 106.776 108.489C107.33 108.129 108.015 107.949 108.829 107.949C109.582 107.949 110.238 108.11 110.796 108.432C111.36 108.754 111.795 109.22 112.103 109.831C112.416 110.442 112.57 111.183 112.565 112.054V119H109.994V112.452C109.994 111.723 109.804 111.152 109.426 110.74C109.052 110.328 108.533 110.122 107.87 110.122C107.42 110.122 107.02 110.222 106.67 110.42C106.324 110.615 106.052 110.896 105.853 111.266C105.659 111.635 105.562 112.082 105.562 112.608ZM120.008 119.213C118.914 119.213 117.97 118.986 117.174 118.531C116.383 118.072 115.775 117.423 115.349 116.585C114.923 115.742 114.71 114.75 114.71 113.609C114.71 112.487 114.923 111.502 115.349 110.655C115.78 109.803 116.381 109.14 117.153 108.666C117.925 108.188 118.831 107.949 119.873 107.949C120.545 107.949 121.18 108.058 121.776 108.276C122.378 108.489 122.908 108.82 123.367 109.27C123.831 109.72 124.196 110.293 124.461 110.989C124.726 111.68 124.859 112.504 124.859 113.46V114.249H115.917V112.516H122.394C122.39 112.023 122.283 111.585 122.075 111.202C121.866 110.813 121.575 110.508 121.201 110.286C120.832 110.063 120.401 109.952 119.909 109.952C119.383 109.952 118.921 110.08 118.524 110.335C118.126 110.586 117.816 110.918 117.593 111.33C117.375 111.737 117.264 112.184 117.259 112.672V114.185C117.259 114.819 117.375 115.364 117.607 115.818C117.839 116.268 118.164 116.614 118.58 116.855C118.997 117.092 119.485 117.21 120.044 117.21C120.418 117.21 120.756 117.158 121.059 117.054C121.362 116.945 121.625 116.786 121.847 116.578C122.07 116.37 122.238 116.112 122.352 115.804L124.752 116.074C124.601 116.708 124.312 117.262 123.886 117.736C123.464 118.205 122.925 118.569 122.267 118.83C121.608 119.085 120.856 119.213 120.008 119.213ZM132.481 108.091V110.08H126.21V108.091H132.481ZM127.758 105.477H130.329V115.719C130.329 116.064 130.381 116.33 130.486 116.514C130.595 116.694 130.737 116.817 130.912 116.884C131.087 116.95 131.281 116.983 131.494 116.983C131.655 116.983 131.802 116.971 131.934 116.947C132.072 116.924 132.176 116.902 132.247 116.884L132.68 118.893C132.543 118.941 132.346 118.993 132.091 119.05C131.84 119.107 131.532 119.14 131.167 119.149C130.523 119.168 129.943 119.071 129.427 118.858C128.911 118.64 128.502 118.304 128.199 117.849C127.9 117.395 127.754 116.827 127.758 116.145V105.477ZM143.097 110.974L140.754 111.23C140.687 110.993 140.571 110.771 140.406 110.562C140.245 110.354 140.027 110.186 139.752 110.058C139.478 109.93 139.142 109.866 138.744 109.866C138.209 109.866 137.759 109.982 137.394 110.214C137.035 110.446 136.857 110.747 136.862 111.116C136.857 111.434 136.973 111.692 137.21 111.891C137.451 112.089 137.849 112.253 138.403 112.381L140.264 112.778C141.296 113.001 142.063 113.354 142.565 113.837C143.071 114.32 143.327 114.952 143.332 115.733C143.327 116.42 143.126 117.026 142.728 117.551C142.335 118.072 141.788 118.479 141.088 118.773C140.387 119.066 139.582 119.213 138.673 119.213C137.338 119.213 136.263 118.934 135.448 118.375C134.634 117.812 134.149 117.028 133.992 116.024L136.499 115.783C136.613 116.275 136.855 116.647 137.224 116.898C137.593 117.149 138.074 117.274 138.666 117.274C139.276 117.274 139.767 117.149 140.136 116.898C140.51 116.647 140.697 116.337 140.697 115.967C140.697 115.655 140.576 115.397 140.335 115.193C140.098 114.99 139.729 114.833 139.227 114.724L137.366 114.334C136.32 114.116 135.545 113.749 135.044 113.233C134.542 112.712 134.293 112.054 134.298 111.259C134.293 110.586 134.475 110.004 134.845 109.511C135.219 109.014 135.737 108.631 136.4 108.361C137.068 108.086 137.837 107.949 138.708 107.949C139.987 107.949 140.993 108.221 141.727 108.766C142.465 109.31 142.922 110.046 143.097 110.974Z" fill="#776C5D"/>
</svg>
