<svg width="480" height="480" viewBox="70 70 480 480" fill="none" xmlns="http://www.w3.org/2000/svg">
<rect x="70" y="70" width="480" height="480" fill="#FDFDFD"/>
<path d="M520 264.685L100 264.685C95.5817 264.685 92 261.103 92 256.685V170.685C92 169.58 92.8954 168.685 94 168.685L526 168.685C527.105 168.685 528 169.58 528 170.685V256.685C528 261.103 524.418 264.685 520 264.685Z" fill="#E8DFD1" stroke="#C5A882" stroke-width="4"/>
<path opacity="0.32" d="M462 452.315L158 452.315C154.134 452.315 151 449.181 151 445.315V361.315C151 357.449 154.134 354.315 158 354.315L462 354.315C465.866 354.315 469 357.449 469 361.315V445.315C469 449.181 465.866 452.315 462 452.315Z" fill="#B8A48A" stroke="#C5A882" stroke-width="2"/>
</svg>
