<svg width="200" height="200" viewBox="0 0 200 200" fill="none" xmlns="http://www.w3.org/2000/svg">
<g clip-path="url(#clip0_259_45)">
<rect width="200" height="200" fill="#FDFDFD"/>
<path d="M46.9199 87.3657C51.0641 88.2612 53.4146 88.5137 56.6534 88.162C57.3069 88.0911 57.9585 88.324 58.4099 88.8018C61.9408 92.5391 64.8235 94.6323 70.677 97.8845" stroke="#C5A882" stroke-width="3"/>
<path d="M46.2248 86.5574C44.4647 67.0878 44.3535 56.9186 46.1412 42.6235C46.2372 41.8559 46.7717 41.2141 47.508 40.9769L55.4579 38.4161C55.6561 38.3523 55.863 38.3198 56.0711 38.3198H67.8403C68.2609 38.3198 68.6626 38.4467 69.0062 38.6891C71.6326 40.5426 83.6419 48.8316 91.5006 51.1051C99.2969 53.3604 137.472 54.3461 146.568 54.551C147.658 54.5756 148.516 55.465 148.516 56.5546V243.535C148.516 244.639 147.621 245.535 146.516 245.535H119.898C118.793 245.535 117.898 244.639 117.898 243.535V84.9214C117.898 83.7177 116.838 82.7863 115.645 82.9498C95.7561 85.6769 89.0163 89.7855 78.7409 97.3239C78.4533 97.5349 78.1061 97.6691 77.7511 97.7033C64.0041 99.0253 57.2649 96.1709 46.9636 87.9379C46.5418 87.6008 46.2734 87.0952 46.2248 86.5574Z" fill="#E8DFD1" stroke="#C5A882" stroke-width="3"/>
<path d="M46.302 87.4059C44.4683 67.3803 44.3277 57.1248 46.1412 42.6235C46.2372 41.8559 46.7717 41.2141 47.508 40.9769L52.8884 39.2438C54.2503 38.8051 55.6192 39.8966 55.5077 41.323C54.2903 56.8895 54.2184 73.3017 58.2951 87.4003C77.6658 80.3481 99.343 76.5507 116.16 77.1836C117.909 77.2494 118.126 78.8255 118.014 81.0342C117.965 81.9792 117.219 82.7383 116.281 82.8637C95.6104 85.6289 88.9364 89.8223 78.2987 97.6488C63.8853 99.1301 57.1197 96.1593 46.302 87.4059Z" fill="#B8A48A"/>
<path d="M46.302 87.4059C44.4683 67.3803 44.3277 57.1248 46.1412 42.6235C46.2372 41.8559 46.7717 41.2141 47.508 40.9769L52.8884 39.2438C54.2503 38.8051 55.6192 39.8966 55.5077 41.323C54.2903 56.8895 54.2184 73.3017 58.2951 87.4003M46.302 87.4059C57.1197 96.1593 63.8852 99.1301 78.2987 97.6488M46.302 87.4059L58.2951 87.4003M78.2987 97.6488C88.9364 89.8223 95.6104 85.6289 116.281 82.8637C117.219 82.7383 117.966 81.9792 118.014 81.0342C118.126 78.8255 117.909 77.2494 116.16 77.1836C99.343 76.5507 77.6658 80.3481 58.2951 87.4003M78.2987 97.6488L58.2951 87.4003" stroke="#C5A882" stroke-width="3"/>
<path d="M157.57 58.76L151.196 56.5795C149.898 56.1355 148.549 57.1001 148.549 58.4718V243.339C148.549 244.444 149.444 245.339 150.549 245.339H158.618C159.729 245.339 160.628 244.433 160.618 243.321L158.922 60.6337C158.914 59.7855 158.372 59.0345 157.57 58.76Z" fill="#B8A48A" stroke="#C5A882" stroke-width="3"/>
<path d="M96.4736 51.9873C83.3213 50.0986 74.0919 47.1498 58.3248 40.412C57.1086 39.8923 55.7215 40.6706 55.562 41.9835C53.5937 58.1867 54.987 69.0929 57.2801 85.3307C57.4566 86.5808 58.736 87.3597 59.9291 86.9471C81.171 79.6007 93.6701 77.2271 115.914 76.9458C117.034 76.9316 117.944 77.8449 117.931 78.9644L117.867 84.1445" stroke="#C5A882" stroke-width="3"/>
</g>
<defs>
<clipPath id="clip0_259_45">
<rect width="200" height="200" fill="white"/>
</clipPath>
</defs>
</svg>
