<svg width="240" height="45" viewBox="0 0 240 45" fill="none" xmlns="http://www.w3.org/2000/svg">
<path d="M25.564 29.7832L37.9485 44.6746H51.1267L25.564 29.7832Z" fill="#919191"/>
<path d="M25.5638 29.7832L25.5145 29.8122L0.000976562 44.6746H13.1792L25.5638 29.7832Z" fill="#727272"/>
<path d="M25.564 29.7842L30.936 44.6756H37.9485L25.564 29.7842Z" fill="#828282"/>
<path d="M25.564 44.6756H30.936L25.564 29.7842V44.6756Z" fill="#828282"/>
<path d="M20.1919 44.6756H25.5639V29.7842L20.1919 44.6756Z" fill="#828282"/>
<path d="M25.5638 29.7842L13.1792 44.6756H20.1917L25.5638 29.7842Z" fill="#828282"/>
<path d="M25.564 29.7832L25.5994 29.8039L51.1273 44.6741L44.5376 33.159L25.564 29.7832Z" fill="#D7D7D7"/>
<path d="M25.564 29.7823L44.5376 33.1581L41.0314 27.0303L25.564 29.7823Z" fill="#E6E6E6"/>
<path d="M25.564 29.7826L41.0314 27.0306L38.3459 22.3369L25.564 29.7826Z" fill="#E6E6E6"/>
<path d="M38.3459 22.3373L35.6599 17.6436L25.564 29.783L38.3459 22.3373Z" fill="#E6E6E6"/>
<path d="M25.564 29.7828L35.6599 17.6434L32.1536 11.5156L25.564 29.7828Z" fill="#E6E6E6"/>
<path d="M25.564 29.7832L32.1536 11.516L25.564 0.000976562V29.7832Z" fill="#F6F6F6"/>
<path d="M25.5638 29.7832V0.000976562L18.9741 11.516L25.5638 29.7832Z" fill="#242424"/>
<path d="M25.5638 29.7832L6.59016 33.159L0.000488281 44.6741L25.5638 29.7832Z" fill="#434343"/>
<path d="M25.5637 29.7828L18.974 11.5156L15.4678 17.6434L25.5637 29.7828Z" fill="#333333"/>
<path d="M15.4678 17.6436L12.7817 22.3373L25.5637 29.783L15.4678 17.6436Z" fill="#333333"/>
<path d="M25.5636 29.7826L12.7817 22.3369L10.0962 27.0306L25.5636 29.7826Z" fill="#333333"/>
<path d="M25.5635 29.7833L10.0961 27.0312L6.58984 33.159L25.5635 29.7833Z" fill="#333333"/>
<g style="mix-blend-mode:color">
<mask id="mask0_41_1958" style="mask-type:alpha" maskUnits="userSpaceOnUse" x="0" y="0" width="52" height="45">
<g style="mix-blend-mode:difference">
<path d="M51.127 44.6738H0.000976562L25.5146 29.8115L25.5635 29.7822L51.127 44.6738ZM25.5635 29.7822L0.000976562 44.6729L6.58984 33.1582L10.0957 27.0303L12.7812 22.3359L15.4678 17.6426L18.9736 11.5146L25.5635 29.7822ZM32.1533 11.5146L35.6602 17.6426L38.3457 22.3359L41.0312 27.0303L44.5371 33.1582L51.127 44.6729L25.5996 29.8027L25.5635 29.7822L18.9746 11.5146L25.5635 0L32.1533 11.5146Z" fill="white"/>
</g>
</mask>
<g mask="url(#mask0_41_1958)">
<rect width="50.7536" height="44.6753" fill="#EC4E0B"/>
</g>
</g>
<path d="M67.1797 7.81738V12.0868H71.5454V7.81738H67.1797ZM67.455 15.752V36.2935H71.3094V15.752H67.455Z" fill="white"/>
<path d="M75.5976 36.2935H79.452V23.6867C79.452 20.5853 81.2612 18.5312 84.1323 18.5312C87.0821 18.5312 87.6327 20.3839 87.6327 23.1228V36.2935H91.4871V23.6867C91.4871 20.5853 93.2963 18.5312 96.1674 18.5312C99.1172 18.5312 99.6678 20.3839 99.6678 23.1228V36.2935H103.522V22.0353C103.522 17.6451 101.477 15.1479 97.426 15.1479C94.3189 15.1479 92.313 16.759 90.8578 18.7326H90.7791C89.9532 16.4367 88.262 15.1479 85.4695 15.1479C82.4411 15.1479 80.5926 16.759 79.5307 18.3298H79.452V15.752H75.5976V36.2935Z" fill="white"/>
<path d="M113.102 36.8574C116.366 36.8574 118.647 35.5282 119.985 33.3935H120.063C120.26 35.7296 121.322 36.4949 123.21 36.4949C123.839 36.4949 124.508 36.4143 125.176 36.2532V33.8366C124.94 33.8769 124.822 33.8769 124.704 33.8769C123.957 33.8769 123.76 33.1116 123.76 31.6213V22.1964C123.76 16.8798 120.457 15.1076 116.327 15.1076C110.191 15.1076 107.674 18.209 107.478 22.1561H111.411C111.607 19.4173 112.669 18.2895 116.17 18.2895C119.119 18.2895 119.985 19.5381 119.985 21.0284C119.985 23.0422 118.058 23.445 114.911 24.0492C109.916 25.0561 106.534 26.3853 106.534 30.9769C106.534 34.481 109.09 36.8574 113.102 36.8574ZM113.967 33.6755C111.568 33.6755 110.585 32.6283 110.585 30.695C110.585 28.5603 112.04 27.5936 115.58 26.8283C117.625 26.3853 119.355 25.9422 119.985 25.3381V28.2783C119.985 31.863 117.428 33.6755 113.967 33.6755Z" fill="white"/>
<path d="M142.263 34.9241C142.263 38.7907 140.375 40.4421 136.717 40.4421C133.453 40.4421 132.076 38.9921 131.683 37.1393H127.711C128.104 40.8449 130.975 43.6643 136.717 43.6643C142.46 43.6643 146.117 40.8851 146.117 34.6824V15.752H142.263V18.1687H142.184C141.083 16.7187 139.234 15.1479 136.009 15.1479C131.014 15.1479 127.16 18.6117 127.16 25.2172C127.16 31.7824 131.014 35.2463 136.009 35.2463C139.234 35.2463 141.083 33.7963 142.184 32.1449H142.263V34.9241ZM136.717 18.4506C140.178 18.4506 142.224 20.7062 142.224 25.2172C142.224 29.688 140.178 31.9838 136.717 31.9838C132.942 31.9838 131.172 29.0839 131.172 25.2172C131.172 21.3506 132.942 18.4506 136.717 18.4506Z" fill="white"/>
<path d="M150.181 7.81738V12.0868H154.546V7.81738H150.181ZM150.456 15.752V36.2935H154.31V15.752H150.456Z" fill="white"/>
<path d="M158.599 36.2935H162.453V23.6867C162.453 20.5853 164.577 18.5312 167.88 18.5312C170.752 18.5312 171.932 20.3839 171.932 23.1228V36.2935H175.825V22.0353C175.825 17.3229 172.836 15.1479 169.139 15.1479C165.678 15.1479 163.593 16.759 162.532 18.3298H162.453V15.752H158.599V36.2935Z" fill="white"/>
<path d="M188.769 36.8977C194.039 36.8977 196.989 33.9171 198.012 29.97H194.118C193.725 31.3394 192.388 33.6755 188.848 33.6755C184.875 33.6755 182.909 30.5338 182.83 27.07H198.248C198.287 26.7478 198.287 26.1436 198.287 25.5797C198.287 19.2159 194.865 15.1076 188.769 15.1076C182.634 15.1076 178.858 19.5381 178.858 25.9825C178.858 32.2658 182.398 36.8977 188.769 36.8977ZM188.651 18.3298C192.073 18.3298 194.236 20.7464 194.236 23.9686H182.83C183.066 20.5853 185.426 18.3298 188.651 18.3298Z" fill="white"/>
<path d="M199.728 31.9033V36.2935H204.015V31.9033H199.728Z" fill="white"/>
<path d="M209.023 7.81738V12.0868H213.388V7.81738H209.023ZM209.298 15.752V36.2935H213.152V15.752H209.298Z" fill="white"/>
<path d="M226.374 36.8977C232.627 36.8977 236.403 32.4269 236.403 25.9825C236.403 19.5784 232.627 15.1076 226.374 15.1076C220.12 15.1076 216.345 19.6187 216.345 26.0228C216.345 32.4672 220.12 36.8977 226.374 36.8977ZM226.374 33.6352C222.244 33.6352 220.356 30.2922 220.356 26.0228C220.356 21.7131 222.244 18.4103 226.374 18.4103C230.464 18.4103 232.392 21.7131 232.392 26.0228C232.392 30.2922 230.464 33.6352 226.374 33.6352Z" fill="white"/>
</svg>
